<?xml version="1.0" encoding="UTF-8" standalone="no"?>
<!DOCTYPE svg PUBLIC "-//W3C//DTD SVG 1.1//EN" "http://www.w3.org/Graphics/SVG/1.1/DTD/svg11.dtd">
<svg width="100%" height="100%" viewBox="0 0 91 24" version="1.1" xmlns="http://www.w3.org/2000/svg" xmlns:xlink="http://www.w3.org/1999/xlink" xml:space="preserve" xmlns:serif="http://www.serif.com/" style="fill-rule:evenodd;clip-rule:evenodd;stroke-linejoin:round;stroke-miterlimit:2;">
    <g>
        <g transform="matrix(1.22421,0,0,1.27313,-0.967286,-1.75343)">
            <path d="M20.395,3.734C20.395,2.433 19.297,1.377 17.944,1.377L3.241,1.377C1.888,1.377 0.79,2.433 0.79,3.734L0.79,17.872C0.79,19.173 1.888,20.228 3.241,20.228L17.944,20.228C19.297,20.228 20.395,19.173 20.395,17.872L20.395,3.734Z" style="fill:rgb(219,22,47);"/>
        </g>
        <g transform="matrix(1.25,0,0,1.25,1.97647,1.98743)">
            <path d="M13.928,2.619C15.226,4.042 16.019,5.934 16.019,8.01C16.019,12.425 12.434,16.01 8.019,16.01C3.604,16.01 0.019,12.425 0.019,8.01C0.019,3.595 3.604,0.01 8.019,0.01C9.463,0.01 10.818,0.394 11.989,1.064C11.415,1.27 10.805,1.332 10.185,1.352L10.181,1.351C9.283,1.062 8.332,0.954 7.392,1.038C6.516,1.116 5.656,1.361 4.871,1.757C4.006,2.194 3.235,2.811 2.618,3.558C2.069,4.223 1.645,4.989 1.373,5.807C1.152,6.473 1.033,7.173 1.02,7.875C1.007,8.552 1.092,9.231 1.273,9.884C1.478,10.622 1.806,11.325 2.239,11.958C2.722,12.663 3.334,13.279 4.037,13.766C4.809,14.302 5.688,14.679 6.609,14.868C7.479,15.046 8.383,15.057 9.257,14.901C9.892,14.787 10.511,14.585 11.091,14.301C11.911,13.899 12.65,13.336 13.256,12.653C13.827,12.01 14.278,11.262 14.579,10.456C14.834,9.774 14.98,9.053 15.012,8.325C15.046,7.545 14.952,6.76 14.729,6.012C14.474,5.156 14.053,4.357 13.499,3.656L13.477,3.63C13.676,3.36 13.832,3.029 13.928,2.619Z" style="fill:white;"/>
            <g transform="matrix(0.110694,0,0,0.110694,4.73214,6.20276)">
                <path d="M10.063,17.144C18.921,-4.453 81.889,24.724 78.313,-16.286C55.715,4.017 9.855,-23.194 10.063,17.14" style="fill:white;"/>
            </g>
            <g transform="matrix(0.110694,0,0,0.110694,3.73214,6.24666)">
                <path d="M3.661,23.628C2.915,24.703 1.998,25.8 2.42,27.35C3.39,30.919 8.127,29.978 7.37,33.127C7.168,33.967 6.769,34.536 7.285,35.246C7.685,35.793 8.473,35.983 8.929,36.426C7.187,37.774 7.874,38.894 9.474,40.227C10.023,40.686 10.146,40.871 9.862,41.751C8.927,44.659 9.313,46.378 11.035,47.995C12.166,49.055 16.597,49.238 21.766,49.605C41.265,50.99 29.372,70.957 17.756,65.963C-4,56.609 -18.261,34.067 -15.059,9.149C-12.428,-11.328 1.35,-28.839 22.191,-35.707C43.18,-42.624 68.259,-32.338 87.119,-47.398C92.822,8.619 16.608,-44.379 7.832,8.999C7.448,11.331 8.135,11.299 8.665,13.084C9.218,14.951 8.689,15.767 7.85,17.142C6.463,19.415 5.116,21.525 3.661,23.628" style="fill:white;"/>
            </g>
        </g>
    </g>
    <g transform="matrix(1,0,0,1,2.27996,7.35422)">
        <g transform="matrix(14,0,0,14,24.972,9.42578)">
            <path d="M0.422,0.012C0.349,0.012 0.284,-0.004 0.226,-0.035C0.167,-0.066 0.122,-0.11 0.089,-0.165C0.055,-0.22 0.039,-0.281 0.039,-0.35C0.039,-0.419 0.055,-0.481 0.089,-0.536C0.122,-0.591 0.167,-0.634 0.226,-0.665C0.284,-0.696 0.349,-0.712 0.422,-0.712C0.495,-0.712 0.56,-0.696 0.618,-0.665C0.676,-0.634 0.722,-0.591 0.755,-0.536C0.788,-0.481 0.805,-0.419 0.805,-0.35C0.805,-0.281 0.788,-0.22 0.755,-0.165C0.722,-0.11 0.676,-0.066 0.618,-0.035C0.56,-0.004 0.495,0.012 0.422,0.012ZM0.422,-0.126C0.463,-0.126 0.501,-0.135 0.534,-0.155C0.567,-0.173 0.594,-0.2 0.613,-0.234C0.632,-0.268 0.641,-0.307 0.641,-0.35C0.641,-0.393 0.632,-0.432 0.613,-0.466C0.594,-0.5 0.567,-0.527 0.534,-0.546C0.501,-0.565 0.463,-0.574 0.422,-0.574C0.381,-0.574 0.343,-0.565 0.31,-0.546C0.277,-0.527 0.251,-0.5 0.232,-0.466C0.213,-0.432 0.203,-0.393 0.203,-0.35C0.203,-0.307 0.213,-0.268 0.232,-0.234C0.251,-0.2 0.277,-0.173 0.31,-0.155C0.343,-0.135 0.381,-0.126 0.422,-0.126Z" style="fill:rgb(33,33,33);fill-rule:nonzero;"/>
        </g>
        <g transform="matrix(14,0,0,14,36.788,9.42578)">
            <path d="M0.221,-0.467C0.24,-0.493 0.265,-0.513 0.297,-0.526C0.328,-0.539 0.365,-0.546 0.406,-0.546L0.406,-0.402C0.389,-0.403 0.377,-0.404 0.371,-0.404C0.326,-0.404 0.291,-0.392 0.266,-0.367C0.241,-0.341 0.228,-0.304 0.228,-0.254L0.228,0L0.072,0L0.072,-0.538L0.221,-0.538L0.221,-0.467Z" style="fill:rgb(33,33,33);fill-rule:nonzero;"/>
        </g>
        <g transform="matrix(14,0,0,14,42.696,9.42578)">
            <path d="M0.627,-0.538L0.627,-0.09C0.627,0.009 0.601,0.082 0.55,0.13C0.499,0.178 0.424,0.202 0.325,0.202C0.273,0.202 0.224,0.196 0.177,0.183C0.13,0.17 0.092,0.152 0.061,0.128L0.123,0.016C0.146,0.035 0.174,0.049 0.209,0.061C0.244,0.071 0.278,0.077 0.313,0.077C0.367,0.077 0.407,0.065 0.433,0.041C0.458,0.016 0.471,-0.021 0.471,-0.07L0.471,-0.093C0.43,-0.048 0.374,-0.026 0.301,-0.026C0.252,-0.026 0.207,-0.037 0.166,-0.059C0.125,-0.08 0.092,-0.111 0.068,-0.15C0.044,-0.189 0.032,-0.235 0.032,-0.286C0.032,-0.337 0.044,-0.383 0.068,-0.422C0.092,-0.461 0.125,-0.492 0.166,-0.514C0.207,-0.535 0.252,-0.546 0.301,-0.546C0.379,-0.546 0.438,-0.52 0.479,-0.469L0.479,-0.538L0.627,-0.538ZM0.332,-0.154C0.373,-0.154 0.407,-0.166 0.434,-0.191C0.46,-0.215 0.473,-0.247 0.473,-0.286C0.473,-0.325 0.46,-0.357 0.434,-0.382C0.407,-0.406 0.373,-0.418 0.332,-0.418C0.291,-0.418 0.257,-0.406 0.23,-0.382C0.203,-0.357 0.19,-0.325 0.19,-0.286C0.19,-0.247 0.203,-0.215 0.23,-0.191C0.257,-0.166 0.291,-0.154 0.332,-0.154Z" style="fill:rgb(33,33,33);fill-rule:nonzero;"/>
        </g>
        <g transform="matrix(14,0,0,14,52.496,9.42578)">
            <path d="M0.245,-0.57L0.245,-0.385L0.569,-0.385L0.569,-0.255L0.245,-0.255L0.245,0L0.083,0L0.083,-0.7L0.612,-0.7L0.612,-0.57L0.245,-0.57Z" style="fill:rgb(33,33,33);fill-rule:nonzero;"/>
        </g>
        <g transform="matrix(14,0,0,14,61.442,9.42578)">
            <rect x="0.072" y="-0.742" width="0.156" height="0.742" style="fill:rgb(33,33,33);fill-rule:nonzero;"/>
        </g>
        <g transform="matrix(14,0,0,14,65.656,9.42578)">
            <path d="M0.328,0.008C0.271,0.008 0.221,-0.004 0.176,-0.028C0.131,-0.051 0.095,-0.084 0.07,-0.126C0.045,-0.168 0.032,-0.216 0.032,-0.269C0.032,-0.322 0.045,-0.37 0.07,-0.412C0.095,-0.454 0.131,-0.487 0.176,-0.511C0.221,-0.534 0.271,-0.546 0.328,-0.546C0.385,-0.546 0.435,-0.534 0.48,-0.511C0.525,-0.487 0.56,-0.454 0.585,-0.412C0.61,-0.37 0.623,-0.322 0.623,-0.269C0.623,-0.216 0.61,-0.168 0.585,-0.126C0.56,-0.084 0.525,-0.051 0.48,-0.028C0.435,-0.004 0.385,0.008 0.328,0.008ZM0.328,-0.12C0.368,-0.12 0.401,-0.133 0.427,-0.161C0.452,-0.188 0.465,-0.224 0.465,-0.269C0.465,-0.314 0.452,-0.351 0.427,-0.378C0.401,-0.405 0.368,-0.418 0.328,-0.418C0.288,-0.418 0.255,-0.405 0.229,-0.378C0.203,-0.351 0.19,-0.314 0.19,-0.269C0.19,-0.224 0.203,-0.188 0.229,-0.161C0.255,-0.133 0.288,-0.12 0.328,-0.12Z" style="fill:rgb(33,33,33);fill-rule:nonzero;"/>
        </g>
        <g transform="matrix(14,0,0,14,74.616,9.42578)">
            <path d="M0.936,-0.538L0.741,0L0.591,0L0.47,-0.334L0.345,0L0.195,0L0.001,-0.538L0.148,-0.538L0.275,-0.174L0.407,-0.538L0.539,-0.538L0.667,-0.174L0.798,-0.538L0.936,-0.538Z" style="fill:rgb(33,33,33);fill-rule:nonzero;"/>
        </g>
    </g>
</svg>
